<svg xmlns="http://www.w3.org/2000/svg" width="512" height="512" viewBox="0 0 512 512"><mask id="a"><circle cx="256" cy="256" r="256" fill="#fff"/></mask><g mask="url(#a)"><rect width="512" height="512" fill="#2b7fc3"/><g fill="#2f9e44"><path d="M70 200c18-20 40-34 66-44 9-3 21 2 27 9 10 10 22 15 37 17 26 3 39-5 52-17 9-8 24-7 36-4 25 6 47 5 68-3 9-4 20-3 28 2 18 12 36 26 49 45-22 5-43 10-65 8-20-2-34 2-45 13-8 8-17 15-30 16-18 2-33-4-48-13-15-8-31-10-49-7-18 2-35 1-49-7-15-8-27-10-42-4-9 3-18 6-28 10-10-7-17-14-22-21Z"/><path d="M92 330c10-8 23-10 37-9 19 2 33 13 45 25 10 9 25 12 42 10 17-3 30-10 40-21 10-10 22-16 37-19 22-5 43-1 64 7 19 7 39 11 59 8 12-1 24-5 35-10 4 10 7 20 9 31-10 9-22 16-36 20-24 7-49 6-76 2-23-4-45-3-65 4-22 7-44 11-67 10-20 0-38-6-54-17-12-9-26-14-42-14-14 0-27 3-40 9-13-9-23-20-30-36Z"/></g><g fill="#e6f4ff" opacity=".35"><path d="M256 64c20 0 38 4 56 10-10 8-22 12-36 12-20 0-38-8-52-22 10-0 20 0 32 0Z"/><path d="M464 224c0 8-1 16-3 24-14 2-26-2-36-10-12-10-26-16-42-18 18-10 36-14 56-10 9 2 17 6 25 14Z"/></g></g></svg>